<svg id="Layer_1" xmlns="http://www.w3.org/2000/svg" viewBox="0 0 562.5 541.5"><style>.st0{fill:#d20a11}.st1{fill:#e5332a}.st2,.st3{fill:#d9d9d9;stroke:#6f6f6e;stroke-miterlimit:10}.st3{fill:none;stroke:#fff;stroke-width:5}.st4{fill:#fff}.st5{fill:#bd1622}.st6{fill:#941417}.st7,.st8{fill:none;stroke:#941417;stroke-width:3;stroke-miterlimit:10}.st8{fill:#fff}.st9{fill:#1d1d1b}.st10{fill:url(#SVGID_1_)}.st11{fill:url(#SVGID_2_)}</style><path transform="rotate(-.222 287.568 271.4)" class="st0" d="M62.8 46.7h449.5v449.5H62.8z"/><path class="st1" d="M221.5 76.4h135v77.3h-135z"/><path class="st2" d="M303.3 426.3c0 8.8-7.1 16-15.9 16s-15.9-7.1-16-15.9c0-8.8 7.1-16 15.8-16 8.9 0 16 7.1 16.1 15.9z"/><path class="st3" d="M249.9 112.5L289.8 89l38.3 23.1"/><path class="st3" d="M260 106.9v34.2h18.5v-18h22.3v18h18.5v-34.2M267 102.4V87.5h10.5v8.2"/><path class="st4" d="M303.7 81.3s-5.1 16.1-11.7 22.9c-6.6 6.8-14 18.2-5.7 27.2s20.2 12.3 24.5 3.1c4.2-9.2 2.2-20.8 4.2-27.2 2-6.4 4-10.2 4-10.2l-13.6 9.5s1.2-12.8-1.7-25.3z"/><path class="st0" d="M298.8 115.1s-1.9 5.9-4.3 8.2c-2.3 2.3-4.8 6.1-1.3 8.4 3.5 2.3 8.3 2.8 9.6-.2 1.3-2.9.1-6.3.7-8.3.6-2 1.9-5.5 1.9-5.5l-5.6 5.7s.5-4.7-1-8.3z"/><path class="st1" d="M115.3 368.9l33-18.6 282.3-1.1 30.2 18.4z"/><path class="st5" d="M115.3 368.9l33-18.6-1.9-156.7-31.9-18.4zM460.1 367.6l-33-18.6 1.8-156.8 31.9-18.3z"/><path class="st6" d="M113.1 173.9l33.3 19.7h282.5l31.9-19.7z"/><path transform="matrix(1 -.00386 .00386 1 -1.046 1.113)" class="st7" d="M114.9 174.6h345.5v193.7H114.9z"/><path transform="matrix(1 -.00388 .00388 1 -1.052 1.119)" class="st8" d="M145.1 193h285.2v156.8H145.1z"/><path class="st9" d="M308.6 271.3c0 11.5-9.3 21-20.9 21.1-11.5 0-21-9.4-21-20.9 0-11.6 9.3-21 20.9-21 11.5-.1 21 9.3 21 20.8zM395.4 265.1l-42.5.1v-5.8l-38.1 11.9 38.2 11.6-.1-5.9 42.6-.1zM179.9 265.9l42.5-.2v-5.8l38.1 11.6-38 11.9-.1-5.9-42.5.2z"/><linearGradient id="SVGID_1_" gradientUnits="userSpaceOnUse" x1="220.183" y1="76.404" x2="356.49" y2="76.404"><stop offset="0" stop-color="#941417"/><stop offset="1" stop-color="#d20a11"/></linearGradient><path class="st10" d="M220.2 75.4h136.3v2H220.2z"/><linearGradient id="SVGID_2_" gradientUnits="userSpaceOnUse" x1="305.679" y1="235.225" x2="384.012" y2="235.225" gradientTransform="rotate(90 343.017 112.742)"><stop offset="0" stop-color="#941417"/><stop offset="1" stop-color="#d20a11"/></linearGradient><path class="st11" d="M219.5 75.4h2v78.3h-2z"/></svg>