<svg width="250" height="251" viewBox="0 0 250 251" xmlns="http://www.w3.org/2000/svg"><title>detector</title><defs><linearGradient x1="-.01%" y1="49.999%" x2="99.985%" y2="49.999%" id="a"><stop stop-color="#FFF" offset="0%"/><stop stop-color="#D9D9D9" offset="100%"/></linearGradient><linearGradient x1="-.025%" y1="50.01%" y2="50.01%" id="b"><stop stop-color="#FFF" offset="0%"/><stop stop-color="#C6C6C5" offset="100%"/></linearGradient><linearGradient x1="-.18%" y1="49.851%" x2="99.973%" y2="49.851%" id="c"><stop stop-color="#FFF" offset="0%"/><stop offset="100%"/></linearGradient><linearGradient x1="-.113%" y1="49.996%" x2="100.005%" y2="49.996%" id="d"><stop stop-color="#FFF" offset="0%"/><stop offset="100%"/></linearGradient></defs><g fill="none" fill-rule="evenodd"><circle fill="url(#a)" cx="124.9" cy="125" r="124.2"/><circle stroke="#3C3C3B" stroke-width="5" cx="124.9" cy="125" r="81.2"/><circle stroke="#3C3C3B" stroke-width="5" cx="124.9" cy="125" r="72.9"/><circle stroke="#3C3C3B" stroke-width="5" cx="124.9" cy="125" r="63.8"/><circle stroke="#3C3C3B" stroke-width="5" cx="124.9" cy="125" r="54.6"/><circle stroke="#3C3C3B" stroke-width="5" cx="124.9" cy="125" r="45.7"/><path d="M124.9.7C56.1.7.2 56.7.2 125.4s56 124.7 124.7 124.7c68.8 0 124.7-56 124.7-124.7S193.6.7 124.9.7zm64.9 72l-31.1 23.6c-6.6-7.7-15.8-13.1-26.2-14.9l5-38.8c21 3.2 39.5 14.3 52.3 30.1zm-64.9-31c2.6 0 5.1.1 7.6.4l-5 38.8c-.9-.1-1.8-.1-2.7-.1-10.4 0-19.9 3.5-27.5 9.5L71.6 60.8c14.6-12 33.1-19.1 53.3-19.1zM68 64l25.7 29.4c-6.5 6.3-11 14.6-12.7 23.8l-39-3.6C44.7 94.2 54.2 76.8 68 64zm-26.9 61.4c0-2.3.1-4.5.3-6.7l38.9 3.6c-.1 1-.1 2.1-.1 3.1 0 9.2 2.8 17.7 7.5 24.8l-31.1 23.6c-9.7-13.7-15.5-30.4-15.5-48.4zm18.5 52.4l31.1-23.6c6.4 7.6 15.4 13.1 25.5 15.1l-5 38.8c-20.7-3.5-38.9-14.6-51.6-30.3zm65.3 31.4c-2.9 0-5.8-.2-8.6-.4l5-38.8c1.2.1 2.4.2 3.7.2 10.3 0 19.8-3.5 27.3-9.4l25.7 29.5c-14.6 11.7-33 18.9-53.1 18.9zm56.7-22.3L156 157.5c7.2-7 12.1-16.4 13.3-27l38.9 3.6c-2.2 20.8-12 39.3-26.6 52.8zm26.9-57.8l-39-3.6v-.1c0-9.3-2.9-18-7.8-25.2l31.1-23.6c9.9 13.7 15.7 30.6 15.7 48.8.1 1.2.1 2.5 0 3.7z" fill="url(#b)"/><g transform="translate(215 117)"><path d="M15 29C7.2 29 .8 22.6.8 14.8.8 7 7.2.6 15 .6 22.8.6 29.2 7 29.2 14.8 29.2 22.6 22.8 29 15 29zm0-26.7C8.1 2.3 2.6 7.9 2.6 14.7c0 6.8 5.6 12.4 12.4 12.4 6.9 0 12.4-5.6 12.4-12.4 0-6.8-5.6-12.4-12.4-12.4z" fill="url(#c)"/><circle fill="#3C3C3B" cx="10" cy="14.1" r="6.7"/><circle fill="#C6C6C5" cx="12.1" cy="14.8" r="4.5"/></g><path d="M124.9 153.3c-15.6 0-28.3-12.7-28.3-28.3 0-15.6 12.7-28.3 28.3-28.3 15.6 0 28.3 12.7 28.3 28.3 0 15.6-12.7 28.3-28.3 28.3zm0-51.6c-12.9 0-23.3 10.5-23.3 23.3 0 12.9 10.5 23.3 23.3 23.3 12.9 0 23.3-10.5 23.3-23.3 0-12.9-10.5-23.3-23.3-23.3z" fill="url(#d)"/></g></svg>