<svg width="964" height="665" viewBox="0 0 964 665" xmlns="http://www.w3.org/2000/svg"><title>logo</title><g fill="none" fill-rule="evenodd"><path d="M962 262c0 143.2-215.2 259.3-480.6 259.3C216 521.3.8 405.2.8 262 .8 118.8 216 2.7 481.4 2.7 746.8 2.7 962 118.8 962 262z" fill="#D20A11"/><path d="M427.4.1s71.6 41.1-2.7 142.4c-59.4 80.9-160.4 69.3-174.4 184.3C234.6 456.5 519.8 521.4 549.7 524c4.3.4-134.8-76.5-13.4-184s150.1-117.4 149.4-179.9c-1-72.5-79.6-110.3-258.3-160z" fill="#FFF"/><g fill="#FFF"><path d="M11.7 643.7v-56.5c0-1.3.3-2.2.9-2.7.6-.6 1.5-.9 2.7-.9h29.9c.9 0 1.6.4 2.1 1.1.4.7.7 1.9.7 3.4v2.7c0 1.6-.2 2.7-.7 3.4-.4.7-1.1 1.1-2.1 1.1H25.5v13.1h19.1c.9 0 1.6.4 2 1.1.4.7.6 1.8.6 3.4v2.8c0 1.6-.2 2.7-.6 3.4-.4.7-1.1 1-2 1H25.5v23.5c0 1.9-1.8 2.8-5.4 2.8H17c-3.5.1-5.3-.8-5.3-2.7zM55.9 588.9v-7.3c0-1.9 1.8-2.8 5.4-2.8h2.5c3.6 0 5.4.9 5.4 2.8v7.3c0 1.9-1.8 2.9-5.4 2.9h-2.5c-3.6 0-5.4-1-5.4-2.9zm0 54.8v-41.5c0-1.9 1.8-2.8 5.4-2.8h2.5c3.6 0 5.4.9 5.4 2.8v41.5c0 1.9-1.8 2.8-5.4 2.8h-2.5c-3.6 0-5.4-.9-5.4-2.8zM78.8 602.6c0-.9 1.2-1.7 3.7-2.2 2.5-.5 4.6-.8 6.4-.8.5 0 .9.1 1.2.3.4.2.6.4.9.7.2.3.4.6.6 1.1.2.5.3.9.4 1.2.1.3.2.8.3 1.3.1.6.2 1 .2 1.2 1.1-2.1 2.5-3.7 4-5 1.5-1.2 3.4-1.9 5.8-1.9 1.9 0 3.3.5 4 1.5.7 1 1.1 2.1 1.1 3.3 0 1.2-.3 2.8-.8 4.7-.5 1.9-1.2 2.8-2 2.8-.4 0-1-.1-1.9-.3-.9-.2-1.7-.3-2.3-.3-1.6 0-3.1.5-4.3 1.4-1.2.9-2.2 1.9-2.9 3.1v28.7c0 1.9-1.8 2.8-5.4 2.8h-2.5c-3.6 0-5.4-.9-5.4-2.8V615c0-3.6-.2-6.6-.6-9l-.5-3.4zM110.9 623.2c0-4.3.5-8.1 1.6-11.2 1.1-3.2 2.6-5.7 4.5-7.6 2-1.9 4.3-3.3 6.8-4.2 2.6-.9 5.5-1.4 8.8-1.4 2.7 0 5.2.4 7.4 1.2 2.2.8 4 1.9 5.5 3.3s2.7 3.1 3.7 5.1c1 2 1.7 4.1 2.1 6.3.4 2.2.7 4.6.7 7.2 0 .8-.6 1.8-1.8 3.2-1.2 1.4-2.1 2.1-2.7 2.1h-22.9c.3 3.4 1.3 5.8 3.1 7.3 1.8 1.4 4.2 2.1 7.3 2.1 1.7 0 3.3-.2 4.9-.7 1.6-.5 2.9-.9 4-1.4 1.1-.5 1.7-.7 2-.7.9 0 1.9.9 3 2.6 1.1 1.8 1.6 3.2 1.6 4.2 0 1.1-.6 2-1.8 2.9-1.2.9-2.7 1.5-4.4 2-1.8.5-3.5.9-5.3 1.1-1.7.3-3.3.4-4.7.4-7.9 0-13.7-2.1-17.6-6.3-3.9-4.1-5.8-10-5.8-17.5zm13.7-4.9h14.5c0-2.7-.5-4.9-1.6-6.6-1.1-1.6-2.7-2.5-4.8-2.5-4.5 0-7.2 3-8.1 9.1zM182.5 643.7v-57.4c0-2 1.8-3 5.4-3h3.1c3.5 0 5.3 1 5.3 3v57.4c0 2-1.8 2.9-5.3 2.9h-3.1c-3.6 0-5.4-1-5.4-2.9zM206.6 602.6c0-.9 1.2-1.6 3.7-2.1s4.6-.7 6.4-.7c.5 0 .9.1 1.2.3.4.2.6.4.9.7.2.3.4.6.6 1.1.2.5.3.9.4 1.2.1.3.2.8.3 1.3.1.6.2.9.2 1.2 1.4-1.9 3.3-3.5 5.7-4.8 2.4-1.3 4.9-2 7.6-2 4.5 0 7.8 1.2 10 3.5 2.1 2.3 3.2 6 3.2 11v30.4c0 1.9-1.8 2.8-5.4 2.8h-2.5c-3.6 0-5.4-.9-5.4-2.8v-28.4c0-1.8-.4-3.2-1.3-4.2-.8-.9-2.2-1.4-4.1-1.4-1.6 0-3.1.5-4.3 1.6-1.2 1.1-2.2 2.3-2.9 3.6v28.8c0 1.9-1.8 2.8-5.4 2.8H213c-3.6 0-5.4-.9-5.4-2.8v-28.4c0-3.6-.2-6.6-.6-9l-.4-3.7zM255.8 622.8c0-7.4 1.7-13.2 5-17.6 3.3-4.3 8-6.5 13.9-6.5 3.6 0 6.6.9 9.1 2.8v-19.9c0-1.9 1.8-2.8 5.4-2.8h2.5c3.6 0 5.4.9 5.4 2.8v48.9c0 3.7.2 6.8.5 9.3.4 2.5.5 3.7.5 3.8 0 .9-1.2 1.7-3.7 2.1-2.4.5-4.6.7-6.4.7-.5 0-.9-.1-1.2-.3-.4-.2-.6-.4-.9-.7-.2-.3-.4-.7-.6-1.2-.2-.5-.3-.9-.4-1.3-.1-.4-.2-.8-.3-1.4-.1-.6-.2-1-.2-1.2-1.1 2-2.7 3.6-4.8 4.9-2.1 1.2-4.5 1.9-7.2 1.9-5 0-9-2.1-12.1-6.4-3-4.3-4.5-10.3-4.5-17.9zm13.4 0c0 8.9 2.4 13.3 7.3 13.3 2.8 0 5.3-1.8 7.4-5.3v-19.9c-2.1-1.1-4.2-1.7-6.3-1.7-5.6 0-8.4 4.6-8.4 13.6zM307.9 632.6v-30.4c0-1.9 1.8-2.8 5.4-2.8h2.5c3.6 0 5.4.9 5.4 2.8v28.4c0 1.8.4 3.2 1.3 4.2.8.9 2.2 1.4 4.1 1.4 1.6 0 3.1-.5 4.3-1.6 1.2-1.1 2.2-2.3 2.9-3.6v-28.8c0-1.9 1.8-2.8 5.4-2.8h2.5c3.6 0 5.4.9 5.4 2.8v28.4c0 3.7.2 6.8.5 9.2.4 2.5.5 3.7.5 3.8 0 .9-1.2 1.6-3.6 2.1-2.4.5-4.6.7-6.4.7-.5 0-.9-.1-1.2-.3-.4-.2-.6-.4-.9-.7-.2-.3-.4-.7-.6-1.2-.2-.5-.3-.9-.4-1.3-.1-.3-.2-.8-.3-1.4-.1-.6-.2-1-.2-1.3-1.4 1.9-3.3 3.5-5.7 4.8-2.4 1.3-4.9 2-7.6 2-4.5 0-7.8-1.2-10-3.5s-3.3-6-3.3-10.9zM355.3 640.7c0-1 .6-2.3 1.7-4.1 1.2-1.7 2.2-2.6 3-2.5.3 0 .8.2 1.8.6.9.4 2 .8 3.3 1.2 1.3.4 2.5.6 3.8.6 3.6 0 5.5-1.3 5.5-4 0-1-.3-1.9-1-2.7-.7-.7-1.5-1.3-2.6-1.8s-2.2-.9-3.5-1.3c-1.3-.4-2.5-1-3.8-1.6-1.3-.7-2.4-1.4-3.5-2.3-1.1-.9-1.9-2.2-2.6-3.8-.7-1.6-1-3.5-1-5.7 0-4.5 1.5-8 4.4-10.6 3-2.6 7-3.9 12.1-3.9 1.1 0 2.2.1 3.4.2 1.2.1 2.6.4 4.3.7 1.6.4 3 .9 4 1.8 1.1.8 1.6 1.8 1.6 3 0 .8-.4 2.1-1.3 3.9-.9 1.8-1.7 2.7-2.5 2.7 0 0-.9-.3-2.6-.9-1.7-.6-3.4-.9-5-.9-3.2 0-4.9 1.1-4.9 3.2 0 .9.3 1.6 1 2.3.7.6 1.5 1.2 2.6 1.6 1.1.4 2.2.9 3.5 1.3 1.3.5 2.5 1 3.8 1.7 1.3.7 2.4 1.5 3.5 2.5s1.9 2.3 2.6 3.9c.7 1.6 1 3.5 1 5.7 0 4.7-1.5 8.5-4.6 11.3-3.1 2.8-7.1 4.3-12.1 4.3-2.7 0-5.2-.2-7.5-.7-2.3-.5-4.3-1.2-5.8-2.1-1.8-1.1-2.6-2.2-2.6-3.6zM392.3 605.4v-1.5c0-1.6.2-2.7.7-3.4.4-.7 1.1-1 2.1-1h1.4l1.1-8.6c.3-1.9 1.9-2.9 4.9-2.9h2.8c3 0 4.5 1 4.5 2.9v8.6h4.4c.9 0 1.6.3 2.1 1 .4.7.7 1.8.7 3.4v1.5c0 1.6-.2 2.7-.7 3.4-.4.7-1.1 1.1-2.1 1.1h-4.4v22.8c0 1.3.3 2.3.8 2.9.5.6 1.3.9 2.5.9.3 0 .7-.1 1.3-.2.6-.1.9-.2 1.1-.2.8 0 1.4.9 1.9 2.6.5 1.8.8 3 .8 3.8 0 2.9-2.9 4.4-8.6 4.4-8.7 0-13.1-4.8-13.1-14.5v-22.6H395c-.9 0-1.6-.4-2.1-1.1-.4-.5-.6-1.7-.6-3.3zM424.6 602.6c0-.9 1.2-1.7 3.7-2.2 2.5-.5 4.6-.8 6.4-.8.5 0 .9.1 1.2.3.4.2.6.4.9.7.2.3.4.6.6 1.1.2.5.3.9.4 1.2.1.3.2.8.3 1.3.1.6.2 1 .2 1.2 1.1-2.1 2.5-3.7 4-5 1.5-1.2 3.4-1.9 5.8-1.9 1.9 0 3.3.5 4 1.5.7 1 1.1 2.1 1.1 3.3 0 1.2-.3 2.8-.8 4.7-.5 1.9-1.2 2.8-2 2.8-.4 0-1-.1-1.9-.3-.9-.2-1.7-.3-2.3-.3-1.6 0-3.1.5-4.3 1.4-1.2.9-2.2 1.9-2.9 3.1v28.7c0 1.9-1.8 2.8-5.4 2.8h-2.5c-3.6 0-5.4-.9-5.4-2.8V615c0-3.6-.2-6.6-.6-9l-.5-3.4zM453.8 601.3c0-1.3 1.8-2 5.5-2h2.9c3 0 4.7.6 5 1.9l5.3 16.6c.7 2.3 1.5 5.9 2.5 10.8h.4c1.1-5.4 1.9-9 2.5-10.8l5.3-16.6c.4-1.3 2.1-1.9 5-1.9h2.1c3.6 0 5.4.7 5.4 2 0 .5-.1 1-.3 1.6l-20.5 60c-.5 1.3-2.1 1.9-5 1.9h-1.5c-3.6 0-5.4-.6-5.4-1.9 0-.5.1-1 .4-1.6l5.6-15-14.8-43.5c-.3-.8-.4-1.4-.4-1.5zM517.5 644.5c0-.3.1-.8.4-1.6l19.7-57.6c.5-1.3 2.2-1.9 5.1-1.9h4.7c2.9 0 4.7.6 5.1 1.9l19.7 57.6c.2.6.3 1.2.3 1.6 0 1.3-1.5 2-4.5 2h-4c-3 0-4.6-.6-5-1.9l-3.6-11h-21.2l-3.6 11c-.4 1.3-1.8 1.9-4.1 1.9h-3.6c-3.6 0-5.4-.6-5.4-2zm20.7-22.6h13.5l-5.1-16c-.1-.3-.3-1-.5-1.9-.2-.9-.4-1.8-.6-2.6l-.2-1.2h-.3c-.6 2.8-1 4.7-1.4 5.7l-5.4 16zM575.2 640.7c0-1 .6-2.3 1.7-4.1 1.2-1.7 2.2-2.6 3-2.5.3 0 .8.2 1.8.6.9.4 2 .8 3.3 1.2 1.3.4 2.5.6 3.8.6 3.6 0 5.5-1.3 5.5-4 0-1-.3-1.9-1-2.7-.7-.7-1.5-1.3-2.6-1.8s-2.2-.9-3.5-1.3c-1.3-.4-2.5-1-3.8-1.6-1.3-.7-2.4-1.4-3.5-2.3-1.1-.9-1.9-2.2-2.6-3.8-.7-1.6-1-3.5-1-5.7 0-4.5 1.5-8 4.4-10.6 3-2.6 7-3.9 12.1-3.9 1.1 0 2.2.1 3.4.2 1.2.1 2.6.4 4.3.7 1.6.4 3 .9 4 1.8 1.1.8 1.6 1.8 1.6 3 0 .8-.4 2.1-1.3 3.9-.9 1.8-1.7 2.7-2.5 2.7 0 0-.9-.3-2.6-.9-1.7-.6-3.4-.9-5-.9-3.2 0-4.9 1.1-4.9 3.2 0 .9.3 1.6 1 2.3.7.6 1.5 1.2 2.6 1.6 1.1.4 2.2.9 3.5 1.3 1.3.5 2.5 1 3.8 1.7 1.3.7 2.4 1.5 3.5 2.5s1.9 2.3 2.6 3.9c.7 1.6 1 3.5 1 5.7 0 4.7-1.5 8.5-4.6 11.3-3.1 2.8-7.1 4.3-12.1 4.3-2.7 0-5.2-.2-7.5-.7-2.3-.5-4.3-1.2-5.8-2.1-1.8-1.1-2.6-2.2-2.6-3.6zM612.2 640.7c0-1 .6-2.3 1.7-4.1 1.2-1.7 2.2-2.6 3-2.5.3 0 .8.2 1.8.6.9.4 2 .8 3.3 1.2 1.3.4 2.5.6 3.8.6 3.6 0 5.5-1.3 5.5-4 0-1-.3-1.9-1-2.7-.7-.7-1.5-1.3-2.6-1.8s-2.2-.9-3.5-1.3c-1.3-.4-2.5-1-3.8-1.6-1.3-.7-2.4-1.4-3.5-2.3-1.1-.9-1.9-2.2-2.6-3.8-.7-1.6-1-3.5-1-5.7 0-4.5 1.5-8 4.4-10.6 3-2.6 7-3.9 12.1-3.9 1.1 0 2.2.1 3.4.2 1.2.1 2.6.4 4.3.7 1.6.4 3 .9 4 1.8 1.1.8 1.6 1.8 1.6 3 0 .8-.4 2.1-1.3 3.9-.9 1.8-1.7 2.7-2.5 2.7 0 0-.9-.3-2.6-.9-1.7-.6-3.4-.9-5-.9-3.2 0-4.9 1.1-4.9 3.2 0 .9.3 1.6 1 2.3.7.6 1.5 1.2 2.6 1.6 1.1.4 2.2.9 3.5 1.3 1.3.5 2.5 1 3.8 1.7 1.3.7 2.4 1.5 3.5 2.5s1.9 2.3 2.6 3.9c.7 1.6 1 3.5 1 5.7 0 4.7-1.5 8.5-4.6 11.3-3.1 2.8-7.1 4.3-12.1 4.3-2.7 0-5.2-.2-7.5-.7-2.3-.5-4.3-1.2-5.8-2.1-1.8-1.1-2.6-2.2-2.6-3.6zM655.7 640.8c-3.7-4.2-5.6-10.1-5.6-18s1.9-13.8 5.6-17.9c3.7-4.1 9.1-6.2 16.2-6.2s12.5 2.1 16.2 6.2c3.7 4.1 5.5 10.1 5.5 17.9 0 7.8-1.8 13.8-5.5 18-3.7 4.1-9.1 6.2-16.2 6.2-7 0-12.5-2-16.2-6.2zm7.9-18c0 9.2 2.8 13.7 8.4 13.7 5.5 0 8.2-4.6 8.2-13.7 0-4.6-.7-8-2-10.2-1.3-2.3-3.4-3.4-6.2-3.4-5.6 0-8.4 4.6-8.4 13.6zM701.2 623.2c0-8.1 1.9-14.3 5.6-18.3 3.7-4.1 9.5-6.1 17.4-6.1 2.2 0 4.5.2 6.7.7 2.2.4 4.1 1.1 5.8 2.1 1.6 1 2.5 2.1 2.5 3.4 0 .9-.6 2.3-1.8 4.1-1.2 1.9-2.2 2.8-2.9 2.8-.2 0-.7-.2-1.6-.7-2.7-1.3-5.3-2-7.8-2-3.5 0-6.1 1.1-7.7 3.3-1.6 2.2-2.4 5.6-2.4 10.3 0 4.7.8 8.2 2.3 10.4 1.5 2.2 4 3.3 7.3 3.3 2.9 0 5.8-.7 8.8-2.1 1-.4 1.6-.6 1.6-.6.9 0 1.9.9 3 2.6 1.1 1.8 1.7 3.2 1.7 4.2 0 .9-.5 1.8-1.4 2.6-.9.8-2 1.4-3.3 1.8-1.3.4-2.7.8-4.2 1.1-1.5.3-2.9.5-4 .6-1.1.1-2.1.2-2.8.2-7.6 0-13.3-2-17-5.9-4-3.7-5.8-9.7-5.8-17.8zM746.2 588.9v-7.3c0-1.9 1.8-2.8 5.4-2.8h2.5c3.6 0 5.4.9 5.4 2.8v7.3c0 1.9-1.8 2.9-5.4 2.9h-2.5c-3.6 0-5.4-1-5.4-2.9zm0 54.8v-41.5c0-1.9 1.8-2.8 5.4-2.8h2.5c3.6 0 5.4.9 5.4 2.8v41.5c0 1.9-1.8 2.8-5.4 2.8h-2.5c-3.6 0-5.4-.9-5.4-2.8zM768.3 634c0-1.7.2-3.2.5-4.6.3-1.4 1-2.8 2.1-4.4 1.1-1.6 2.5-2.9 4.3-3.9 1.8-1.1 4.3-1.9 7.5-2.6 3.2-.7 7-1.1 11.4-1.1v-2.9c0-1.7-.6-3-1.7-3.9-1.1-.8-2.9-1.3-5.3-1.3-1.9 0-3.8.2-5.5.7-1.7.5-3.1 1-4.1 1.4-1 .5-1.6.7-1.8.7-.9 0-1.9-.9-3-2.8s-1.7-3.3-1.7-4.4c0-1.6 1.7-3 5-4.3 3.3-1.3 7.4-1.9 12.2-1.9 6.7 0 11.6 1.3 14.7 4 3 2.7 4.6 6.3 4.6 11v16.8c0 3.7.2 6.8.5 9.2.3 2.5.5 3.7.5 3.8 0 .9-1.2 1.6-3.6 2.1-2.4.5-4.6.7-6.4.7-.5 0-.9-.1-1.2-.3-.3-.2-.6-.4-.9-.7-.2-.3-.4-.7-.6-1.2-.2-.5-.3-.9-.4-1.3-.1-.3-.2-.8-.3-1.4-.1-.6-.2-1-.2-1.3-.2.4-.6.9-1.2 1.6-.6.6-1.4 1.4-2.5 2.2-1 .8-2.4 1.6-4.1 2.1-1.7.6-3.5.9-5.4.9-4.6 0-8-1.2-10.1-3.6-2.2-2.2-3.3-5.4-3.3-9.3zm13.3-1.4c0 1.2.4 2.1 1.2 2.8.8.7 1.9 1.1 3.3 1.1 1.7 0 3.3-.5 4.8-1.6s2.6-2.4 3.3-4V626c-8.4 0-12.6 2.2-12.6 6.6zM816.2 605.4v-1.5c0-1.6.2-2.7.7-3.4.4-.7 1.1-1 2.1-1h1.4l1.1-8.6c.3-1.9 1.9-2.9 4.9-2.9h2.8c3 0 4.5 1 4.5 2.9v8.6h4.4c.9 0 1.6.3 2.1 1 .4.7.7 1.8.7 3.4v1.5c0 1.6-.2 2.7-.7 3.4-.4.7-1.1 1.1-2.1 1.1h-4.4v22.8c0 1.3.3 2.3.8 2.9.5.6 1.3.9 2.5.9.3 0 .7-.1 1.3-.2.6-.1.9-.2 1.1-.2.8 0 1.4.9 1.9 2.6.5 1.8.8 3 .8 3.8 0 2.9-2.9 4.4-8.6 4.4-8.7 0-13.1-4.8-13.1-14.5v-22.6H819c-.9 0-1.6-.4-2.1-1.1-.5-.5-.7-1.7-.7-3.3zM849.4 588.9v-7.3c0-1.9 1.8-2.8 5.4-2.8h2.5c3.6 0 5.4.9 5.4 2.8v7.3c0 1.9-1.8 2.9-5.4 2.9h-2.5c-3.6 0-5.4-1-5.4-2.9zm0 54.8v-41.5c0-1.9 1.8-2.8 5.4-2.8h2.5c3.6 0 5.4.9 5.4 2.8v41.5c0 1.9-1.8 2.8-5.4 2.8h-2.5c-3.6 0-5.4-.9-5.4-2.8zM877.1 640.8c-3.7-4.2-5.6-10.1-5.6-18s1.9-13.8 5.6-17.9c3.7-4.1 9.1-6.2 16.2-6.2s12.5 2.1 16.2 6.2c3.7 4.1 5.5 10.1 5.5 17.9 0 7.8-1.8 13.8-5.5 18-3.7 4.1-9.1 6.2-16.2 6.2s-12.5-2-16.2-6.2zm7.9-18c0 9.2 2.8 13.7 8.4 13.7 5.5 0 8.2-4.6 8.2-13.7 0-4.6-.7-8-2-10.2-1.3-2.3-3.4-3.4-6.2-3.4-5.6 0-8.4 4.6-8.4 13.6zM923.2 602.6c0-.9 1.2-1.6 3.7-2.1s4.6-.7 6.4-.7c.5 0 .9.1 1.2.3.4.2.6.4.9.7.2.3.4.6.6 1.1.2.5.3.9.4 1.2.1.3.2.8.3 1.3.1.6.2.9.2 1.2 1.4-1.9 3.3-3.5 5.7-4.8 2.4-1.3 4.9-2 7.6-2 4.5 0 7.8 1.2 10 3.5 2.1 2.3 3.2 6 3.2 11v30.4c0 1.9-1.8 2.8-5.4 2.8h-2.5c-3.6 0-5.4-.9-5.4-2.8v-28.4c0-1.8-.4-3.2-1.3-4.2-.8-.9-2.2-1.4-4.1-1.4-1.6 0-3.1.5-4.3 1.6-1.2 1.1-2.2 2.3-2.9 3.6v28.8c0 1.9-1.8 2.8-5.4 2.8h-2.5c-3.6 0-5.4-.9-5.4-2.8v-28.4c0-3.6-.2-6.6-.6-9l-.4-3.7z"/></g><path d="M108.5 338.1V188.4c0-3.3.9-5.7 2.8-7.3 1.9-1.5 4.8-2.3 8.9-2.3h97.7c3 0 5.3.9 6.7 2.8 1.4 1.9 2.1 4.9 2.1 9.1v7.3c0 4.2-.7 7.2-2.1 9.1-1.4 1.9-3.7 2.8-6.7 2.8h-64.3v34.8h62.3c3 0 5.3.9 6.6 2.8 1.4 1.9 2.1 4.9 2.1 9v7.4c0 4.2-.7 7.2-2.1 9-1.4 1.9-3.6 2.8-6.6 2.8h-62.3V338c0 5-5.9 7.5-17.6 7.5h-10c-11.6.1-17.5-2.4-17.5-7.4z" fill="#FFF"/><path d="M441.8 338.1v-152c0-5.3 5.8-7.9 17.5-7.9h10.3c11.6 0 17.4 2.6 17.4 7.9v152.1c0 5.2-5.8 7.8-17.4 7.8h-10.3c-11.6-.1-17.5-2.7-17.5-7.9z" fill="#D20A11"/><path d="M693.6 340.4c0-.7.4-2.1 1.1-4.3l64.4-152.7c1.5-3.3 7.1-5 16.6-5H791c9.6 0 15.2 1.7 16.7 5l64.4 152.7c.6 1.6.9 3 .9 4.3 0 3.5-4.9 5.2-14.6 5.2h-12.8c-9.7 0-15.2-1.7-16.4-5l-11.7-29.2h-69.2l-11.7 29.2c-1.3 3.3-5.8 5-13.4 5h-11.7c-12 0-17.9-1.7-17.9-5.2zm67.5-60.1h44.1L788.4 238c-.4-.9-1-2.6-1.7-5.2-.8-2.5-1.4-4.8-2-6.9l-.7-3.1h-1.1c-1.8 7.4-3.3 12.5-4.4 15.2l-17.4 42.3z" fill="#FFF"/></g></svg>