<svg width="400" height="220" viewBox="0 0 400 220" xmlns="http://www.w3.org/2000/svg"><title>Artboard 1</title><defs><linearGradient x1=".172%" y1="49.763%" x2="100.02%" y2="49.763%" id="a"><stop stop-color="#575756" offset="0%"/><stop stop-color="#B2B2B2" offset="100%"/></linearGradient><linearGradient x1=".189%" y1="50.448%" x2="100.11%" y2="50.448%" id="b"><stop stop-color="#575756" offset="0%"/><stop stop-color="#706F6F" offset="100%"/></linearGradient><linearGradient x1=".172%" y1="49.973%" x2="100.02%" y2="49.973%" id="c"><stop stop-color="#575756" offset="0%"/><stop stop-color="#B2B2B2" offset="100%"/></linearGradient><linearGradient x1=".189%" y1="49.686%" x2="100.11%" y2="49.686%" id="d"><stop stop-color="#575756" offset="0%"/><stop stop-color="#706F6F" offset="100%"/></linearGradient><linearGradient x1=".172%" y1="50.228%" x2="100.02%" y2="50.228%" id="e"><stop stop-color="#575756" offset="0%"/><stop stop-color="#B2B2B2" offset="100%"/></linearGradient><linearGradient x1=".189%" y1="49.988%" x2="100.11%" y2="49.988%" id="f"><stop stop-color="#575756" offset="0%"/><stop stop-color="#706F6F" offset="100%"/></linearGradient><linearGradient x1="-.071%" y1="50.175%" x2="99.605%" y2="50.175%" id="g"><stop stop-color="#575756" offset="0%"/><stop stop-color="#706F6F" offset="100%"/></linearGradient><linearGradient x1="-.128%" y1="50.175%" x2="99.552%" y2="50.175%" id="h"><stop stop-color="#575756" offset="0%"/><stop stop-color="#706F6F" offset="100%"/></linearGradient><linearGradient x1="-.18%" y1="50.175%" x2="99.496%" y2="50.175%" id="i"><stop stop-color="#575756" offset="0%"/><stop stop-color="#706F6F" offset="100%"/></linearGradient><linearGradient x1="-.071%" y1="49.091%" x2="99.605%" y2="49.091%" id="j"><stop stop-color="#575756" offset="0%"/><stop stop-color="#706F6F" offset="100%"/></linearGradient><linearGradient x1="-.128%" y1="49.091%" x2="99.552%" y2="49.091%" id="k"><stop stop-color="#575756" offset="0%"/><stop stop-color="#706F6F" offset="100%"/></linearGradient><linearGradient x1="-.18%" y1="49.091%" x2="99.496%" y2="49.091%" id="l"><stop stop-color="#575756" offset="0%"/><stop stop-color="#706F6F" offset="100%"/></linearGradient><linearGradient x1="-.071%" y1="49.564%" x2="99.605%" y2="49.564%" id="m"><stop stop-color="#575756" offset="0%"/><stop stop-color="#706F6F" offset="100%"/></linearGradient><linearGradient x1="-.128%" y1="49.564%" x2="99.552%" y2="49.564%" id="n"><stop stop-color="#575756" offset="0%"/><stop stop-color="#706F6F" offset="100%"/></linearGradient><linearGradient x1="-.18%" y1="49.564%" x2="99.496%" y2="49.564%" id="o"><stop stop-color="#575756" offset="0%"/><stop stop-color="#706F6F" offset="100%"/></linearGradient><linearGradient x1="-.071%" y1="50.469%" x2="99.605%" y2="50.469%" id="p"><stop stop-color="#575756" offset="0%"/><stop stop-color="#706F6F" offset="100%"/></linearGradient><linearGradient x1="-.128%" y1="50.469%" x2="99.552%" y2="50.469%" id="q"><stop stop-color="#575756" offset="0%"/><stop stop-color="#706F6F" offset="100%"/></linearGradient><linearGradient x1="-.18%" y1="50.469%" x2="99.496%" y2="50.469%" id="r"><stop stop-color="#575756" offset="0%"/><stop stop-color="#706F6F" offset="100%"/></linearGradient><linearGradient x1=".096%" y1="50.335%" x2="100.135%" y2="50.335%" id="s"><stop stop-color="#575756" offset="0%"/><stop stop-color="#B2B2B2" offset="100%"/></linearGradient><linearGradient x1="-.155%" y1="49.875%" x2="99.616%" y2="49.875%" id="t"><stop stop-color="#575756" offset="0%"/><stop stop-color="#B2B2B2" offset="100%"/></linearGradient><linearGradient x1="-.155%" y1="49.991%" x2="99.616%" y2="49.991%" id="u"><stop stop-color="#575756" offset="0%"/><stop stop-color="#B2B2B2" offset="100%"/></linearGradient><linearGradient x1="-.033%" y1="49.941%" x2="100.453%" y2="49.941%" id="v"><stop stop-color="#575756" offset="0%"/><stop stop-color="#B2B2B2" offset="100%"/></linearGradient><linearGradient x1=".136%" y1="49.941%" x2="99.675%" y2="49.941%" id="w"><stop stop-color="#575756" offset="0%"/><stop stop-color="#B2B2B2" offset="100%"/></linearGradient><linearGradient x1=".021%" y1="53.573%" x2="100.003%" y2="53.573%" id="x"><stop stop-color="#951417" offset="0%"/><stop stop-color="#D20A11" offset="100%"/></linearGradient><linearGradient x1="54.6%" y1=".019%" x2="54.6%" y2="100.023%" id="y"><stop stop-color="#951417" offset="0%"/><stop stop-color="#D20A11" offset="100%"/></linearGradient><linearGradient x1=".014%" y1="50.018%" x2="99.968%" y2="50.018%" id="z"><stop stop-color="#FFF" offset="0%"/><stop stop-color="#DADADA" offset="100%"/></linearGradient><linearGradient x1="-.036%" y1="50.025%" x2="100.019%" y2="50.025%" id="A"><stop stop-color="#FFF" offset="0%"/><stop stop-color="#C6C6C6" offset="100%"/></linearGradient><linearGradient x1=".373%" y1="50.035%" x2="99.974%" y2="50.035%" id="B"><stop stop-color="#FFF" offset="0%"/><stop offset="100%"/></linearGradient><linearGradient x1="-.128%" y1="49.838%" x2="100.052%" y2="49.838%" id="C"><stop stop-color="#FFF" offset="0%"/><stop offset="100%"/></linearGradient><linearGradient x1="-.006%" y1="56.667%" x2="99.906%" y2="56.667%" id="D"><stop stop-color="#951417" offset="0%"/><stop stop-color="#D20A11" offset="100%"/></linearGradient><linearGradient x1="50.85%" y1=".14%" x2="50.85%" y2="100.142%" id="E"><stop stop-color="#951417" offset="0%"/><stop stop-color="#D20A11" offset="100%"/></linearGradient></defs><g fill="none" fill-rule="evenodd"><g transform="translate(123 -6)"><path fill="#D20A11" d="M.3.5h328.1v292.3H.3z"/><path fill="#1D1D1B" d="M68 72.9h192.7v138.7H68z"/><path fill="url(#a)" d="M91.3 139.9h22.9v11.7H91.3z"/><path fill="#FFF" d="M150.7 85.4h87.7v34.5h-87.7z"/><path fill="#3C3C3B" d="M52.4 220.6l16.7-11.7V70.7L51.9 59.4zM273.7 221l-15.6-12.1V70.7l16.1-10.9z"/><path fill="#1D1D1B" d="M51.9 59.4l17.2 14.4h189l16.1-14z"/><path d="M235.8 115.5c0 1.2-1 2.2-2.2 2.2h-78.3c-1.2 0-2.2-1-2.2-2.2V89.9c0-1.2 1-2.2 2.2-2.2h78.3c1.2 0 2.2 1 2.2 2.2v25.6z" stroke="#1D1D1B" stroke-width="1.544" fill="#95C11F"/><circle fill="#95C11F" cx="125.2" cy="114.1" r="2.2"/><circle fill="#FFF" cx="87" cy="91.5" r="1.9"/><circle fill="#FFF" cx="87" cy="102.5" r="1.9"/><circle fill="#FFF" cx="125.2" cy="91.5" r="1.9"/><circle fill="#FFF" cx="125.2" cy="102.5" r="1.9"/><path fill="url(#b)" d="M91.3 141.6h21v9.9h-21z"/><path fill="url(#c)" d="M91.3 158.5h22.9v11.7H91.3z"/><path fill="url(#d)" d="M91.3 160.3h21v9.9h-21z"/><path fill="url(#e)" d="M91.3 176.2h22.9v11.7H91.3z"/><path fill="url(#f)" d="M91.3 178h21v9.9h-21z"/><path fill="url(#g)" d="M157 141.6h9.8v6.7H157z"/><path fill="url(#h)" d="M140.9 141.6h9.8v6.7h-9.8z"/><path fill="url(#i)" d="M124.8 141.6h9.8v6.7h-9.8z"/><path fill="url(#j)" d="M157 154.5h9.8v6.7H157z"/><path fill="url(#k)" d="M140.9 154.5h9.8v6.7h-9.8z"/><path fill="url(#l)" d="M124.8 154.5h9.8v6.7h-9.8z"/><path fill="url(#m)" d="M157 167.8h9.8v6.7H157z"/><path fill="url(#n)" d="M140.9 167.8h9.8v6.7h-9.8z"/><path fill="url(#o)" d="M124.8 167.8h9.8v6.7h-9.8z"/><path fill="url(#p)" d="M157 181.2h9.8v6.7H157z"/><path fill="url(#q)" d="M140.9 181.2h9.8v6.7h-9.8z"/><path fill="url(#r)" d="M124.8 181.2h9.8v6.7h-9.8z"/><path fill="url(#s)" d="M200.5 160.2h13.9v12.7h-13.9z"/><path fill="url(#t)" d="M201.2 155.5l6.3-10.5 6.3 10.5z"/><path fill="url(#u)" d="M213.8 177.7l-6.3 10.5-6.3-10.5"/><path fill="url(#v)" d="M218.8 160.3l10.5 6.3-10.5 6.3z"/><path fill="url(#w)" d="M196.4 160.3l-10.6 6.3 10.6 6.3z"/><path fill="#706F6F" d="M78.5 202.3l4.6-6.1h160.5l5.1 5.6z"/><path fill="#575756" d="M248.4 201.8l-4.8-5.6.2-63.7 4.9-6.1z"/><path fill="#3C3C3B" d="M78.2 126.9l4.9 5.6h160.7l4.9-5.6z"/><path fill="#575756" d="M78.5 202.3l4.5-6.1v-63.7l-4.8-5.6z"/><path stroke="#1D1D1B" stroke-width="1.314" d="M78.2 126.9h170.6v74.9H78.2z"/><path fill="url(#x)" d="M45.4 49.1h227.2v1.5H45.4z"/><path fill="url(#y)" d="M44.9 49.1h1.5v171.6h-1.5z"/></g><g transform="translate(29 -41)"><ellipse fill="url(#z)" cx="91" cy="91.4" rx="90.5" ry="90.5"/><ellipse stroke="#3C3C3B" stroke-width="3.642" cx="91" cy="91.4" rx="59.1" ry="59.1"/><ellipse stroke="#3C3C3B" stroke-width="3.642" cx="91" cy="91.4" rx="53.1" ry="53.1"/><ellipse stroke="#3C3C3B" stroke-width="3.642" cx="91" cy="91.4" rx="46.5" ry="46.5"/><ellipse stroke="#3C3C3B" stroke-width="3.642" cx="91" cy="91.4" rx="39.8" ry="39.8"/><ellipse stroke="#3C3C3B" stroke-width="3.642" cx="91" cy="91.4" rx="33.3" ry="33.3"/><path d="M91 .9C40.9.9.2 41.7.2 91.7S41 182.5 91 182.5c50.1 0 90.8-40.8 90.8-90.8S141.1.9 91 .9zm47.3 52.4l-22.7 17.2c-4.8-5.6-11.5-9.5-19.1-10.8l3.6-28.2c15.4 2.3 28.8 10.3 38.2 21.8zM91 30.8c1.9 0 3.7.1 5.6.3L93 59.4c-.6 0-1.3-.1-2-.1-7.5 0-14.5 2.6-20 6.9L52.3 44.6C62.8 36 76.3 30.8 91 30.8zM49.6 47l18.6 21.5c-4.7 4.6-8 10.6-9.2 17.4l-28.4-2.6c2-14.3 8.9-26.9 19-36.3zM30 91.7c0-1.7.1-3.3.2-4.9l28.3 2.6c-.1.8-.1 1.5-.1 2.3 0 6.7 2 12.9 5.5 18L41.3 127C34.2 117 30 104.9 30 91.7zm13.5 38.2l22.6-17.2c4.7 5.6 11.2 9.5 18.6 11l-3.6 28.2c-15.2-2.5-28.4-10.5-37.6-22zM91 152.7c-2.1 0-4.2-.1-6.3-.3l3.6-28.2c.9.1 1.8.1 2.7.1 7.5 0 14.4-2.5 19.9-6.8l18.7 21.5c-10.5 8.5-24 13.7-38.6 13.7zm41.3-16.2l-18.7-21.4c5.3-5.1 8.8-12 9.7-19.7l28.3 2.6c-1.5 15.2-8.7 28.7-19.3 38.5zm19.6-42.1l-28.4-2.6c0-6.8-2.1-13.1-5.7-18.3l22.6-17.2c7.2 10 11.5 22.3 11.5 35.5.1.8 0 1.7 0 2.6z" fill="url(#A)"/><g transform="translate(157 86)"><path d="M10.5 20.7C4.8 20.7.1 16.1.1 10.3.1 4.5 4.8 0 10.5 0s10.4 4.6 10.4 10.4c0 5.8-4.7 10.3-10.4 10.3zm0-19.4c-5 0-9.1 4.1-9.1 9.1s4.1 9.1 9.1 9.1 9.1-4.1 9.1-9.1-4.1-9.1-9.1-9.1z" fill="url(#B)"/><ellipse fill="#3C3C3B" cx="6.9" cy="9.9" rx="4.8" ry="4.8"/><ellipse fill="#C6C6C6" cx="8.5" cy="10.4" rx="3.3" ry="3.3"/></g><path d="M91 112.1c-11.4 0-20.6-9.3-20.6-20.6 0-11.4 9.3-20.6 20.6-20.6 11.4 0 20.6 9.3 20.6 20.6s-9.2 20.6-20.6 20.6zm0-37.7c-9.4 0-17 7.6-17 17s7.6 17 17 17 17-7.6 17-17c0-9.3-7.6-17-17-17z" fill="url(#C)"/></g><path fill="#D20A11" d="M.634 94.168l137.7-.533.533 137.7-137.7.533z"/><path fill="#E6332A" d="M49.5 103h41.3v23.7H49.5z"/><g stroke-width="1.532" stroke="#FFF"><path d="M58.2 114.1l12.2-7.2 11.8 7.1"/><path d="M61.3 112.4v10.5H67v-5.6h6.8v5.6h5.7v-10.5M63.4 111v-4.6h3.2v2.5"/></g><path d="M74.7 104.5s-1.5 4.9-3.6 7c-2.1 2.1-4.3 5.6-1.7 8.3 2.5 2.8 6.2 3.8 7.5 1 1.3-2.8.7-6.4 1.3-8.3.6-2 1.2-3.1 1.2-3.1l-4.2 2.9s.4-3.9-.5-7.8z" fill="#FFF"/><path d="M73.2 114.9s-.6 1.8-1.3 2.5c-.7.7-1.5 1.9-.4 2.6 1.1.7 2.5.8 2.9-.1.4-.9 0-1.9.2-2.5.2-.6.6-1.7.6-1.7l-1.7 1.7s.2-1.4-.3-2.5z" fill="#D20A11"/><path fill="#E6332A" d="M17 192.7l10.1-5.7 86.5-.4 9.2 5.7z"/><path fill="#BE1622" d="M17 192.7l10.1-5.7-.6-48.1-9.8-5.6zM122.6 192.3l-10.1-5.7.6-48.1 9.7-5.6z"/><path fill="#951417" d="M16.3 132.9l10.2 6h86.6l9.7-6z"/><path stroke="#951417" stroke-width=".919" d="M16.686 133.306l105.9-.41.23 59.3-105.901.41z"/><path stroke="#951417" stroke-width=".919" fill="#FFF" d="M26.007 138.97l87.4-.338.187 48-87.4.338z"/><g fill="#1D1D1B"><path d="M76.2 162.8c0 3.5-2.8 6.4-6.4 6.5-3.5 0-6.4-2.9-6.4-6.4 0-3.5 2.9-6.4 6.4-6.4 3.5-.2 6.4 2.7 6.4 6.3zM102.8 160.8l-13 .1v-1.8l-11.7 3.7 11.7 3.5v-1.8h13zM36.8 161.1l13-.1v-1.7l11.6 3.5-11.6 3.7v-1.8h-13z"/></g><path fill="url(#D)" d="M49.1 9.7h41.8v.6H49.1z" transform="translate(0 93)"/><path fill="url(#E)" d="M48.9 9.7h.6v24h-.6z" transform="translate(0 93)"/></g></svg>